HIERARCHY
ROOT Hips
{
 OFFSET 0.000000 0.000000 0.000000
 CHANNELS 6 Xposition Yposition Zposition Yrotation Xrotation Zrotation
 JOINT Chest
 {
  OFFSET 0.000000 10.388337 0.005184
  CHANNELS 3 Yrotation Xrotation Zrotation
  JOINT Chest2
  {
   OFFSET 0.000000 10.458247 -0.010579
   CHANNELS 3 Yrotation Xrotation Zrotation
   JOINT Chest3
   {
    OFFSET 0.000000 10.415828 0.000000
    CHANNELS 3 Yrotation Xrotation Zrotation
    JOINT Chest4
    {
     OFFSET 0.000000 10.405206 0.000000
     CHANNELS 3 Yrotation Xrotation Zrotation
     JOINT Neck
     {
      OFFSET 0.000000 15.720090 0.000000
      CHANNELS 3 Yrotation Xrotation Zrotation
      JOINT Head
      {
       OFFSET 0.000000 9.732643 -0.022378
       CHANNELS 3 Yrotation Xrotation Zrotation
       End Site
       {
        OFFSET 0.000000 18.603619 -0.011814
       }
      }
     }
     JOINT RightCollar
     {
      OFFSET -3.167735 10.388953 0.000000
      CHANNELS 3 Yrotation Xrotation Zrotation
      JOINT RightShoulder
      {
       OFFSET -14.584825 0.000000 0.000000
       CHANNELS 3 Yrotation Xrotation Zrotation
       JOINT RightElbow
       {
        OFFSET 0.000000 -31.921689 0.000000
        CHANNELS 3 Yrotation Xrotation Zrotation
        JOINT RightWrist
        {
         OFFSET 0.000000 -25.835217 0.000000
         CHANNELS 3 Yrotation Xrotation Zrotation
         End Site
         {
          OFFSET 0.000000 -19.128920 0.000000
         }
        }
       }
      }
     }
     JOINT LeftCollar
     {
      OFFSET 3.167735 10.388953 0.000000
      CHANNELS 3 Yrotation Xrotation Zrotation
      JOINT LeftShoulder
      {
       OFFSET 14.584825 0.000000 0.000000
       CHANNELS 3 Yrotation Xrotation Zrotation
       JOINT LeftElbow
       {
        OFFSET 0.000000 -31.921689 0.000000
        CHANNELS 3 Yrotation Xrotation Zrotation
        JOINT LeftWrist
        {
         OFFSET 0.000000 -25.835217 0.000000
         CHANNELS 3 Yrotation Xrotation Zrotation
         End Site
         {
          OFFSET 0.000000 -19.128920 0.000000
         }
        }
       }
      }
     }
    }
   }
  }
 }
 JOINT RightHip
 {
  OFFSET -8.403278 -0.025659 -0.002592
  CHANNELS 3 Yrotation Xrotation Zrotation
  JOINT RightKnee
  {
   OFFSET 0.000000 -44.040977 0.002477
   CHANNELS 3 Yrotation Xrotation Zrotation
   JOINT RightAnkle
   {
    OFFSET 0.000000 -42.951162 0.004189
    CHANNELS 3 Yrotation Xrotation Zrotation
    JOINT RightToe
    {
     OFFSET 0.000000 -5.494238 12.197485
     CHANNELS 3 Yrotation Xrotation Zrotation
     End Site
     {
      OFFSET 0.000000 -1.538716 6.371628
     }
    }
   }
  }
 }
 JOINT LeftHip
 {
  OFFSET 8.403278 -0.025659 -0.002592
  CHANNELS 3 Yrotation Xrotation Zrotation
  JOINT LeftKnee
  {
   OFFSET 0.000000 -44.040977 0.002477
   CHANNELS 3 Yrotation Xrotation Zrotation
   JOINT LeftAnkle
   {
    OFFSET 0.000000 -42.951162 0.004189
    CHANNELS 3 Yrotation Xrotation Zrotation
    JOINT LeftToe
    {
     OFFSET 0.000000 -5.494238 12.197485
     CHANNELS 3 Yrotation Xrotation Zrotation
     End Site
     {
      OFFSET 0.000000 -1.538716 6.371628
     }
    }
   }
  }
 }
}
MOTION
Frames: 14
Frame Time: 0.008333
0.000000 92.319940 0.000000 0.000000 -5.767889 0.000000 0.000000 11.653876 0.000000 0.000000 -5.885988 0.000000 0.000000 -0.000000 0.000000 0.000000 -0.000000 0.000000 0.000000 12.528808 0.000000 0.000000 0.711711 0.000000 0.000000 -0.000000 0.000000 0.000000 0.000000 -90.000000 0.000000 -2.309063 0.000000 0.000000 2.309063 0.000000 0.000000 -0.000000 0.000000 0.000000 -0.000000 90.000000 0.000000 -2.309063 0.000000 0.000000 2.309063 0.000000 0.000000 8.520374 0.000000 0.000000 1.905768 0.000000 -0.000000 -4.658254 0.000000 0.000000 -0.000000 0.000000 0.000000 8.520374 0.000000 0.000000 1.905768 0.000000 -0.000000 -4.658254 0.000000 0.000000 -0.000000 0.000000
-46.700205 93.412466 19.059806 136.856918 -6.313133 2.037046 -0.496295 3.117627 -1.983458 -0.009421 0.070347 -0.048957 -0.016872 0.125658 -0.087462 -0.461168 3.025323 -2.123430 0.053968 17.173480 0.652769 -0.122349 -3.900959 1.187791 6.473093 2.705308 2.879086 -10.449106 10.958654 -11.160619 -12.552407 -4.420816 7.041642 -5.280147 2.298595 -17.317771 1.281382 6.345458 2.171905 6.917644 1.954946 16.526776 25.720036 -37.934101 -77.140696 7.286036 -25.870316 0.482717 -35.419567 5.200619 -10.919492 13.608105 1.081823 -0.306007 3.449323 -4.012762 4.798821 -0.017223 0.222024 -0.014812 -2.752701 12.676667 -1.387322 13.972160 -3.807140 -1.205994 -2.070123 -2.882346 -1.944152 -0.016163 -0.144452 -0.000835
-46.704827 93.412083 19.060793 136.836146 -6.308068 2.035917 -0.491797 3.124901 -1.983098 -0.009321 0.070674 -0.048995 -0.016693 0.126238 -0.087527 -0.456311 3.034451 -2.121483 0.042527 17.152289 0.653158 -0.143812 -3.940198 1.192527 6.473840 2.677274 2.874251 -10.429022 10.964108 -11.175024 -12.538166 -4.402586 7.011643 -5.271536 2.306364 -17.321768 1.277536 6.330842 2.172793 6.903655 1.970575 16.492030 25.702322 -37.887875 -77.149094 7.262286 -25.888756 0.507001 -35.424625 5.174691 -10.912886 13.631546 1.109979 -0.304372 3.461724 -4.025016 4.795650 -0.014826 0.215362 -0.012079 -3.059326 12.673667 -1.480081 14.266036 -3.835846 -1.164838 -2.045980 -2.873562 -1.962920 -0.019016 -0.144418 -0.002085
-46.708356 93.411499 19.059493 136.815949 -6.306019 2.034749 -0.489603 3.134876 -1.981922 -0.009322 0.071085 -0.049090 -0.016693 0.126967 -0.087693 -0.455556 3.045073 -2.120691 0.035208 17.132326 0.653216 -0.157540 -3.977201 1.195247 6.482743 2.646283 2.870127 -10.413477 10.968318 -11.188630 -12.513683 -4.383669 6.976309 -5.272245 2.310534 -17.323138 1.279042 6.311394 2.173216 6.883354 1.994501 16.456411 25.690635 -37.848193 -77.156948 7.242852 -25.898740 0.523979 -35.427357 5.152751 -10.911221 13.659310 1.136917 -0.299558 3.471543 -4.037667 4.791254 -0.012397 0.209175 -0.008886 -3.267211 12.684049 -1.549137 14.488513 -3.875656 -1.134279 -2.045275 -2.859675 -1.978851 -0.019844 -0.145132 -0.001813
-46.709737 93.410665 19.054895 136.796347 -6.308250 2.034442 -0.486344 3.146790 -1.982223 -0.009326 0.071564 -0.049263 -0.016701 0.127816 -0.087998 -0.454831 3.056728 -2.122014 0.030111 17.114267 0.654186 -0.167456 -4.010681 1.198888 6.495606 2.614423 2.871617 -10.403261 10.970232 -11.205497 -12.483565 -4.359855 6.940049 -5.276117 2.312326 -17.324552 1.277273 6.293204 2.175497 6.860940 2.023737 16.418149 25.682865 -37.819124 -77.166107 7.230202 -25.895693 0.540077 -35.425180 5.137688 -10.914653 13.686648 1.161747 -0.290596 3.463665 -4.050432 4.785174 -0.010441 0.204089 -0.006092 -3.392701 12.708594 -1.604716 14.652660 -3.926913 -1.103305 -2.063268 -2.840826 -1.995131 -0.020646 -0.147128 -0.002138
-46.703404 93.410895 19.035624 136.731552 -6.374614 2.063243 -0.438344 3.222099 -2.008218 -0.009332 0.072048 -0.049456 -0.016710 0.128672 -0.088336 -0.454122 3.068264 -2.123984 0.026111 17.097969 0.655942 -0.175599 -4.040896 1.203598 6.509403 2.581678 2.877079 -10.394347 10.971211 -11.226431 -12.454971 -4.329500 6.904022 -5.279944 2.311147 -17.325292 1.271871 6.280884 2.178034 6.839339 2.051916 16.377379 25.676437 -37.801393 -77.178300 7.224496 -25.880197 0.562238 -35.378161 5.170540 -10.980371 13.708311 1.184296 -0.282061 3.440250 -4.095006 4.784486 -0.010029 0.227277 -0.004722 -3.418404 12.840943 -1.711301 14.768936 -4.027882 -1.076165 -2.000494 -2.800014 -1.945570 -0.116065 -0.165998 -0.045968
-46.695465 93.409778 19.020943 136.700544 -6.402964 2.068024 -0.415895 3.258345 -2.013322 -0.009381 0.072505 -0.049637 -0.016798 0.129481 -0.088654 -0.455346 3.079021 -2.125797 0.021801 17.082390 0.658036 -0.184426 -4.069769 1.209038 6.519698 2.546429 2.881754 -10.380989 10.971115 -11.248097 -12.437035 -4.293033 6.868488 -5.279953 2.305256 -17.328230 1.264732 6.271910 2.178691 6.817719 2.078090 16.338352 25.673374 -37.791247 -77.197941 7.221173 -25.857190 0.589635 -35.352934 5.189167 -11.003644 13.718304 1.199649 -0.276972 3.424676 -4.108275 4.783065 -0.007931 0.223431 -0.002923 -3.404629 12.922829 -1.756030 14.825386 -4.112085 -1.042724 -2.014151 -2.776164 -1.952874 -0.133621 -0.167517 -0.055315
-46.678382 93.408608 19.002313 136.657256 -6.454145 2.060509 -0.375152 3.318157 -2.004570 -0.009462 0.072913 -0.049843 -0.016941 0.130202 -0.089018 -0.457947 3.088022 -2.129013 0.016282 17.067992 0.660861 -0.195730 -4.096430 1.216237 6.523672 2.512109 2.884819 -10.365433 10.968392 -11.263971 -12.421382 -4.256430 6.830507 -5.277936 2.298415 -17.335572 1.255338 6.265664 2.178016 6.797293 2.100492 16.305408 25.670439 -37.785856 -77.226897 7.219383 -25.833307 0.617434 -35.312519 5.242226 -11.027574 13.714897 1.214070 -0.277983 3.425116 -4.140449 4.784050 -0.006876 0.233074 -0.001500 -3.307479 13.046208 -1.767847 14.808737 -4.213315 -1.019495 -2.006878 -2.733578 -1.951779 -0.166555 -0.183904 -0.071505
-46.655077 93.407181 18.981422 136.606311 -6.512683 2.050386 -0.324230 3.385586 -1.992878 -0.009557 0.073243 -0.050068 -0.017111 0.130785 -0.089416 -0.461274 3.094607 -2.133659 0.010112 17.055632 0.664343 -0.208444 -4.119293 1.224863 6.524352 2.482792 2.887300 -10.354218 10.964800 -11.272310 -12.392401 -4.227501 6.786279 -5.275037 2.294655 -17.345905 1.247229 6.263184 2.177635 6.778913 2.114406 16.277353 25.655116 -37.784252 -77.254725 7.224593 -25.815479 0.638329 -35.266858 5.306530 -11.050823 13.708123 1.228734 -0.285180 3.436159 -4.169526 4.786570 -0.005189 0.236519 0.000496 -3.137025 13.189914 -1.753233 14.729501 -4.322683 -1.008489 -2.007321 -2.692206 -1.951651 -0.193341 -0.199418 -0.084582
-46.629339 93.405138 18.961734 136.564151 -6.555894 2.041959 -0.282186 3.437148 -1.984034 -0.009643 0.073517 -0.050275 -0.017264 0.131270 -0.089783 -0.464296 3.099851 -2.138229 0.003260 17.045026 0.667631 -0.222340 -4.138892 1.233356 6.525178 2.456914 2.888320 -10.346929 10.962004 -11.277762 -12.350215 -4.204585 6.737658 -5.271893 2.291393 -17.356205 1.242715 6.262544 2.177702 6.761144 2.121454 16.250128 25.624775 -37.789728 -77.272183 7.237365 -25.805100 0.647812 -35.234708 5.356738 -11.064620 13.707778 1.243935 -0.294073 3.437756 -4.187795 4.787913 -0.002842 0.229296 0.002404 -2.929445 13.322607 -1.717862 14.612835 -4.428406 -1.012413 -2.039133 -2.670176 -1.958994 -0.195735 -0.200378 -0.086400
-46.596686 93.403039 18.942795 136.511668 -6.609521 2.023774 -0.231208 3.499089 -1.965245 -0.009727 0.073723 -0.050446 -0.017415 0.131632 -0.090085 -0.467395 3.103553 -2.142186 -0.004152 17.036493 0.670461 -0.237096 -4.154638 1.241183 6.528005 2.432968 2.888384 -10.339161 10.960175 -11.282742 -12.310731 -4.182967 6.689475 -5.265152 2.284407 -17.366488 1.241361 6.262715 2.177748 6.740775 2.126291 16.222267 25.589696 -37.806429 -77.281416 7.254930 -25.800910 0.653081 -35.196726 5.423796 -11.073828 13.714542 1.261169 -0.299024 3.424565 -4.215008 4.784906 -0.001438 0.228450 0.002730 -2.684001 13.464861 -1.651251 14.477285 -4.523661 -1.033394 -2.066197 -2.638307 -1.958904 -0.206806 -0.215382 -0.091990
-46.565678 93.400186 18.929754 136.485198 -6.630576 2.007145 -0.204147 3.528557 -1.952989 -0.009826 0.073819 -0.050588 -0.017591 0.131801 -0.090336 -0.471279 3.104491 -2.146207 -0.012511 17.030518 0.673377 -0.253608 -4.165623 1.249475 6.531411 2.410764 2.889856 -10.331165 10.957768 -11.286144 -12.280712 -4.160654 6.643666 -5.255083 2.274516 -17.377748 1.238988 6.262473 2.178987 6.715462 2.131071 16.194824 25.555119 -37.832457 -77.282774 7.275394 -25.804805 0.659383 -35.183535 5.459027 -11.067133 13.727051 1.279106 -0.300163 3.410344 -4.235528 4.778556 0.000306 0.221544 0.002750 -2.457172 13.565199 -1.572611 14.336270 -4.603564 -1.067365 -2.116801 -2.627727 -1.967056 -0.191347 -0.213667 -0.085465
-46.535104 93.397044 18.921790 136.477334 -6.636416 1.990027 -0.189777 3.544022 -1.944123 -0.009972 0.073879 -0.050762 -0.017850 0.131906 -0.090645 -0.477155 3.104001 -2.151675 -0.023209 17.026376 0.676523 -0.274510 -4.173174 1.258985 6.532949 2.388667 2.893561 -10.321897 10.953553 -11.287964 -12.261469 -4.135160 6.602219 -5.243273 2.264343 -17.387885 1.232522 6.259478 2.183052 6.682392 2.136326 16.167353 25.520618 -37.868432 -77.271258 7.301027 -25.817599 0.665658 -35.190125 5.477301 -11.052350 13.746036 1.301049 -0.300089 3.406492 -4.259207 4.769878 0.001547 0.215123 0.003065 -2.252548 13.635407 -1.486839 14.196056 -4.662754 -1.105538 -2.169590 -2.624425 -1.979227 -0.170326 -0.209573 -0.075138
-46.506267 93.393817 18.919035 136.488022 -6.630737 1.974545 -0.187458 3.547899 -1.939042 -0.010149 0.073998 -0.050999 -0.018167 0.132114 -0.091067 -0.484220 3.104373 -2.158791 -0.037326 17.023558 0.679303 -0.301595 -4.178229 1.268979 6.531047 2.365042 2.898285 -10.310290 10.950372 -11.288653 -12.253427 -4.110005 6.564624 -5.229089 2.255381 -17.394584 1.221263 6.253823 2.187084 6.638383 2.140112 16.138503 25.487084 -37.915745 -77.243293 7.335054 -25.838024 0.675930 -35.215822 5.478688 -11.031533 13.770391 1.330337 -0.300474 3.407706 -4.287363 4.760096 0.002502 0.210120 0.003225 -2.075671 13.677041 -1.401596 14.057550 -4.700584 -1.142230 -2.216984 -2.627890 -1.995040 -0.148633 -0.203818 -0.063058
